<svg viewBox="0 0 330 200.00001525878906" xmlns="http://www.w3.org/2000/svg"><g><g><g><g><g><line x1="53.1875" y1="176" x2="48.1875" y2="176" style="visibility: inherit;" fill="rgb(0, 0, 0)" stroke="rgb(204, 204, 204)" stroke-width="1px"></line><line x1="53.1875" y1="161.33333333333331" x2="48.1875" y2="161.33333333333331" style="visibility: inherit;" fill="rgb(0, 0, 0)" stroke="rgb(204, 204, 204)" stroke-width="1px"></line><line x1="53.1875" y1="146.66666666666669" x2="48.1875" y2="146.66666666666669" style="visibility: inherit;" fill="rgb(0, 0, 0)" stroke="rgb(204, 204, 204)" stroke-width="1px"></line><line x1="53.1875" y1="132" x2="48.1875" y2="132" style="visibility: inherit;" fill="rgb(0, 0, 0)" stroke="rgb(204, 204, 204)" stroke-width="1px"></line><line x1="53.1875" y1="117.33333333333334" x2="48.1875" y2="117.33333333333334" style="visibility: inherit;" fill="rgb(0, 0, 0)" stroke="rgb(204, 204, 204)" stroke-width="1px"></line><line x1="53.1875" y1="102.66666666666667" x2="48.1875" y2="102.66666666666667" style="visibility: inherit;" fill="rgb(0, 0, 0)" stroke="rgb(204, 204, 204)" stroke-width="1px"></line><line x1="53.1875" y1="88.00000000000001" x2="48.1875" y2="88.00000000000001" style="visibility: inherit;" fill="rgb(0, 0, 0)" stroke="rgb(204, 204, 204)" stroke-width="1px"></line><line x1="53.1875" y1="73.33333333333334" x2="48.1875" y2="73.33333333333334" style="visibility: inherit;" fill="rgb(0, 0, 0)" stroke="rgb(204, 204, 204)" stroke-width="1px"></line><line x1="53.1875" y1="58.66666666666669" x2="48.1875" y2="58.66666666666669" style="visibility: inherit;" fill="rgb(0, 0, 0)" stroke="rgb(204, 204, 204)" stroke-width="1px"></line><line x1="53.1875" y1="44.00000000000002" x2="48.1875" y2="44.00000000000002" style="visibility: inherit;" fill="rgb(0, 0, 0)" stroke="rgb(204, 204, 204)" stroke-width="1px"></line><line x1="53.1875" y1="29.333333333333346" x2="48.1875" y2="29.333333333333346" style="visibility: inherit;" fill="rgb(0, 0, 0)" stroke="rgb(204, 204, 204)" stroke-width="1px"></line><line x1="53.1875" y1="14.666666666666673" x2="48.1875" y2="14.666666666666673" style="visibility: inherit;" fill="rgb(0, 0, 0)" stroke="rgb(204, 204, 204)" stroke-width="1px"></line><line x1="53.1875" y1="0" x2="48.1875" y2="0" style="visibility: inherit;" fill="rgb(0, 0, 0)" stroke="rgb(204, 204, 204)" stroke-width="1px"></line></g><g transform="translate(43.1875, 0)"><text x="0" y="176" dx="0em" dy="0.3em" style="text-anchor: end; visibility: hidden; font-family: Roboto, sans-serif; font-size: 12px; font-weight: 200;" fill="rgb(33, 33, 33)" stroke="none" stroke-width="1px">-0.1</text><text x="0" y="161.33333333333331" dx="0em" dy="0.3em" style="text-anchor: end; visibility: inherit; font-family: Roboto, sans-serif; font-size: 12px; font-weight: 200;" fill="rgb(33, 33, 33)" stroke="none" stroke-width="1px">0</text><text x="0" y="146.66666666666669" dx="0em" dy="0.3em" style="text-anchor: end; visibility: hidden; font-family: Roboto, sans-serif; font-size: 12px; font-weight: 200;" fill="rgb(33, 33, 33)" stroke="none" stroke-width="1px">0.1</text><text x="0" y="132" dx="0em" dy="0.3em" style="text-anchor: end; visibility: inherit; font-family: Roboto, sans-serif; font-size: 12px; font-weight: 200;" fill="rgb(33, 33, 33)" stroke="none" stroke-width="1px">0.2</text><text x="0" y="117.33333333333334" dx="0em" dy="0.3em" style="text-anchor: end; visibility: hidden; font-family: Roboto, sans-serif; font-size: 12px; font-weight: 200;" fill="rgb(33, 33, 33)" stroke="none" stroke-width="1px">0.3</text><text x="0" y="102.66666666666667" dx="0em" dy="0.3em" style="text-anchor: end; visibility: inherit; font-family: Roboto, sans-serif; font-size: 12px; font-weight: 200;" fill="rgb(33, 33, 33)" stroke="none" stroke-width="1px">0.4</text><text x="0" y="88.00000000000001" dx="0em" dy="0.3em" style="text-anchor: end; visibility: hidden; font-family: Roboto, sans-serif; font-size: 12px; font-weight: 200;" fill="rgb(33, 33, 33)" stroke="none" stroke-width="1px">0.5</text><text x="0" y="73.33333333333334" dx="0em" dy="0.3em" style="text-anchor: end; visibility: inherit; font-family: Roboto, sans-serif; font-size: 12px; font-weight: 200;" fill="rgb(33, 33, 33)" stroke="none" stroke-width="1px">0.6</text><text x="0" y="58.66666666666669" dx="0em" dy="0.3em" style="text-anchor: end; visibility: hidden; font-family: Roboto, sans-serif; font-size: 12px; font-weight: 200;" fill="rgb(33, 33, 33)" stroke="none" stroke-width="1px">0.7</text><text x="0" y="44.00000000000002" dx="0em" dy="0.3em" style="text-anchor: end; visibility: inherit; font-family: Roboto, sans-serif; font-size: 12px; font-weight: 200;" fill="rgb(33, 33, 33)" stroke="none" stroke-width="1px">0.8</text><text x="0" y="29.333333333333346" dx="0em" dy="0.3em" style="text-anchor: end; visibility: hidden; font-family: Roboto, sans-serif; font-size: 12px; font-weight: 200;" fill="rgb(33, 33, 33)" stroke="none" stroke-width="1px">0.9</text><text x="0" y="14.666666666666673" dx="0em" dy="0.3em" style="text-anchor: end; visibility: inherit; font-family: Roboto, sans-serif; font-size: 12px; font-weight: 200;" fill="rgb(33, 33, 33)" stroke="none" stroke-width="1px">1</text><text x="0" y="0" dx="0em" dy="0.3em" style="text-anchor: end; visibility: hidden; font-family: Roboto, sans-serif; font-size: 12px; font-weight: 200;" fill="rgb(33, 33, 33)" stroke="none" stroke-width="1px">1.1</text></g><line x1="53.1875" y1="0" x2="53.1875" y2="176" fill="rgb(0, 0, 0)" stroke="rgb(204, 204, 204)" stroke-width="1px"></line></g></g><g transform="translate(53, 0)" clip-path="url(#clip_0)"><clipPath id="clip_0"><rect width="276" height="176"></rect></clipPath><g><g><g><line x1="0" y1="0" x2="0" y2="176" fill="rgb(0, 0, 0)" stroke="rgb(66, 66, 66)" stroke-width="1px" opacity="0.25"></line><line x1="23.067708333333332" y1="0" x2="23.067708333333332" y2="176" fill="rgb(0, 0, 0)" stroke="rgb(66, 66, 66)" stroke-width="1px" opacity="0.25"></line><line x1="46.135416666666664" y1="0" x2="46.135416666666664" y2="176" fill="rgb(0, 0, 0)" stroke="rgb(66, 66, 66)" stroke-width="1px" opacity="0.25"></line><line x1="69.203125" y1="0" x2="69.203125" y2="176" fill="rgb(0, 0, 0)" stroke="rgb(66, 66, 66)" stroke-width="1px" opacity="0.25"></line><line x1="92.27083333333333" y1="0" x2="92.27083333333333" y2="176" fill="rgb(0, 0, 0)" stroke="rgb(66, 66, 66)" stroke-width="1px" opacity="0.25"></line><line x1="115.33854166666667" y1="0" x2="115.33854166666667" y2="176" fill="rgb(0, 0, 0)" stroke="rgb(66, 66, 66)" stroke-width="1px" opacity="0.25"></line><line x1="138.40625" y1="0" x2="138.40625" y2="176" fill="rgb(0, 0, 0)" stroke="rgb(66, 66, 66)" stroke-width="1px" opacity="0.25"></line><line x1="161.47395833333334" y1="0" x2="161.47395833333334" y2="176" fill="rgb(0, 0, 0)" stroke="rgb(66, 66, 66)" stroke-width="1px" opacity="0.25"></line><line x1="184.54166666666666" y1="0" x2="184.54166666666666" y2="176" fill="rgb(0, 0, 0)" stroke="rgb(66, 66, 66)" stroke-width="1px" opacity="0.25"></line><line x1="207.609375" y1="0" x2="207.609375" y2="176" fill="rgb(0, 0, 0)" stroke="rgb(66, 66, 66)" stroke-width="1px" opacity="0.25"></line><line x1="230.67708333333334" y1="0" x2="230.67708333333334" y2="176" fill="rgb(0, 0, 0)" stroke="rgb(66, 66, 66)" stroke-width="1px" opacity="0.25"></line><line x1="253.74479166666666" y1="0" x2="253.74479166666666" y2="176" fill="rgb(0, 0, 0)" stroke="rgb(66, 66, 66)" stroke-width="1px" opacity="0.25"></line><line x1="276.8125" y1="0" x2="276.8125" y2="176" fill="rgb(0, 0, 0)" stroke="rgb(66, 66, 66)" stroke-width="1px" opacity="0.25"></line></g><g><line x1="0" y1="176" x2="276.8125" y2="176" fill="rgb(0, 0, 0)" stroke="rgb(66, 66, 66)" stroke-width="1px" opacity="0.25"></line><line x1="0" y1="161.33333333333331" x2="276.8125" y2="161.33333333333331" fill="rgb(0, 0, 0)" stroke="rgb(66, 66, 66)" stroke-width="1px" opacity="0.25"></line><line x1="0" y1="146.66666666666669" x2="276.8125" y2="146.66666666666669" fill="rgb(0, 0, 0)" stroke="rgb(66, 66, 66)" stroke-width="1px" opacity="0.25"></line><line x1="0" y1="132" x2="276.8125" y2="132" fill="rgb(0, 0, 0)" stroke="rgb(66, 66, 66)" stroke-width="1px" opacity="0.25"></line><line x1="0" y1="117.33333333333334" x2="276.8125" y2="117.33333333333334" fill="rgb(0, 0, 0)" stroke="rgb(66, 66, 66)" stroke-width="1px" opacity="0.25"></line><line x1="0" y1="102.66666666666667" x2="276.8125" y2="102.66666666666667" fill="rgb(0, 0, 0)" stroke="rgb(66, 66, 66)" stroke-width="1px" opacity="0.25"></line><line x1="0" y1="88.00000000000001" x2="276.8125" y2="88.00000000000001" fill="rgb(0, 0, 0)" stroke="rgb(66, 66, 66)" stroke-width="1px" opacity="0.25"></line><line x1="0" y1="73.33333333333334" x2="276.8125" y2="73.33333333333334" fill="rgb(0, 0, 0)" stroke="rgb(66, 66, 66)" stroke-width="1px" opacity="0.25"></line><line x1="0" y1="58.66666666666669" x2="276.8125" y2="58.66666666666669" fill="rgb(0, 0, 0)" stroke="rgb(66, 66, 66)" stroke-width="1px" opacity="0.25"></line><line x1="0" y1="44.00000000000002" x2="276.8125" y2="44.00000000000002" fill="rgb(0, 0, 0)" stroke="rgb(66, 66, 66)" stroke-width="1px" opacity="0.25"></line><line x1="0" y1="29.333333333333346" x2="276.8125" y2="29.333333333333346" fill="rgb(0, 0, 0)" stroke="rgb(66, 66, 66)" stroke-width="1px" opacity="0.25"></line><line x1="0" y1="14.666666666666673" x2="276.8125" y2="14.666666666666673" fill="rgb(0, 0, 0)" stroke="rgb(66, 66, 66)" stroke-width="1px" opacity="0.25"></line><line x1="0" y1="0" x2="276.8125" y2="0" fill="rgb(0, 0, 0)" stroke="rgb(66, 66, 66)" stroke-width="1px" opacity="0.25"></line></g></g></g><g><g><line x1="0" y1="161.33333333333331" x2="276.8125" y2="161.33333333333331" fill="rgb(0, 0, 0)" stroke="rgb(153, 153, 153)" stroke-width="1.5px"></line></g></g><g><g><line x1="23.067708333333332" y1="0" x2="23.067708333333332" y2="176" fill="rgb(0, 0, 0)" stroke="rgb(153, 153, 153)" stroke-width="1.5px"></line></g></g><g><g><g><g><g><path stroke="rgb(187, 187, 187)" stroke-width="2px" d="M23.067708333333332,160.35457676773268L24.221093749999998,159.59604042768478L25.374479166666664,158.34812577068806L26.527864583333336,156.78211542963982L27.681250000000002,155.3873876531919L28.834635416666668,154.28628611564636L29.988020833333334,153.20965402324995L31.14140625,152.10855303208035L32.29479166666667,151.47236166397732L33.448177083333334,150.02869554360709L34.6015625,148.87865620851517L35.75494791666667,146.72539202372235L36.90833333333333,146.8722054163615L38.061718750000004,145.2817259033521L39.21510416666666,144.03381206591925L40.368489583333336,142.2231124639511L41.521875,141.70926558971405L42.67526041666667,140.58369406064352L43.82864583333333,138.89534004529318L44.98203125,137.2803905407588L46.135416666666664,134.88243846098584L47.28880208333334,134.9803140560786L48.442187499999996,131.62807273864746L49.59557291666667,130.7227234840393L50.74895833333333,129.62162085374197L51.90234375,127.73751564820608L53.05572916666667,125.33956138292949L54.20911458333333,122.74585811297099L55.362500000000004,119.71171029408774L56.51588541666666,117.06906922658285L57.669270833333336,114.96474393208823L58.82265625,111.44121813774109L59.97604166666667,107.81982111930847L61.12942708333333,102.11856333414715L62.2828125,102.26537672678631L63.436197916666664,95.38961180051169L64.58958333333334,90.52029657363893L65.74296875,84.79457426071168L66.89635416666667,79.90078576405844L68.04973958333333,73.29418309529623L69.203125,69.06106360753378L70.35651041666667,62.06294981638593L71.50989583333335,58.78411738077802L72.66328125,53.59671084086103L73.81666666666666,48.67845344543459L74.97005208333333,41.46012830734255L76.12343750000001,37.83873128890993L77.27682291666667,34.90245469411217L78.43020833333333,30.987430890401235L79.58359374999999,26.6319669087728L80.73697916666667,23.842512448628757L81.89036458333334,21.762647310892746L83.04375,20.63707796732585L84.19713541666665,19.266819636027023L85.35052083333333,17.823154608408615L86.50390625,16.91780535380046L87.65729166666667,16.379489580790207L88.81067708333335,15.963518301645921L89.9640625,15.400733629862474L91.11744791666666,15.400733629862474L92.27083333333333,15.08263794581096L93.42421875000001,15.058169047037767L94.57760416666667,14.9358245531718L95.73098958333333,15.058169047037767L96.88437499999999,14.886886755625413L98.03776041666667,14.837948958079027L99.19114583333334,14.984762350718187L100.34453125,14.911355654398607L101.49791666666665,14.886886755625413L102.65130208333333,14.960293451944993L103.8046875,14.813480059305833L104.95807291666667,14.886886755625413L106.11145833333335,14.837948958079027L107.26484375,14.837948958079027L108.41822916666666,14.813480059305833L109.57161458333333,14.9358245531718L110.72500000000001,15.3028580347697L111.87838541666667,25.40852197011313L113.03177083333333,98.00778396924338L114.18515624999999,63.041705767313665L115.33854166666667,33.55666526158654L116.49192708333334,18.924255053202316L117.6453125,15.08263794581096L118.79869791666665,14.740073362986253L119.95208333333333,14.691135565439867L121.10546875,14.666666666666673L122.25885416666667,14.691135565439867L123.41223958333335,14.666666666666673L124.565625,14.740073362986253L125.71901041666666,14.691135565439867L126.87239583333333,14.691135565439867L128.02578125,14.740073362986253L129.17916666666667,14.666666666666673L130.33255208333333,14.666666666666673L131.4859375,14.666666666666673L132.63932291666669,14.71560446421306L133.79270833333334,14.666666666666673L134.94609375,14.691135565439867L136.09947916666667,14.691135565439867L137.25286458333335,14.666666666666673L138.40625,14.666666666666673L139.55963541666665,14.666666666666673L140.71302083333333,14.666666666666673L141.86640624999998,14.666666666666673L143.0197916666667,14.691135565439867L144.17317708333334,14.666666666666673L145.3265625,14.666666666666673L146.47994791666667,14.666666666666673L147.63333333333333,14.666666666666673L148.78671875,14.666666666666673L149.94010416666666,14.666666666666673L151.0934895833333,14.666666666666673L152.24687500000002,14.666666666666673L153.40026041666667,14.666666666666673L154.55364583333335,14.666666666666673L155.70703125,14.666666666666673L156.86041666666665,14.691135565439867L158.01380208333333,14.666666666666673L159.16718749999998,14.666666666666673L160.3205729166667,14.666666666666673L161.47395833333334,14.666666666666673L162.62734375,14.666666666666673L163.78072916666667,14.666666666666673L164.93411458333333,14.666666666666673L166.0875,14.666666666666673L167.24088541666666,14.666666666666673L168.3942708333333,14.666666666666673L169.54765625000002,14.666666666666673L170.70104166666667,14.666666666666673L171.85442708333335,14.666666666666673L173.0078125,14.666666666666673L174.16119791666665,14.666666666666673L175.31458333333333,14.666666666666673L176.46796874999998,14.666666666666673L177.6213541666667,14.666666666666673L178.77473958333334,14.666666666666673L179.928125,14.666666666666673L181.08151041666667,14.666666666666673L182.23489583333333,14.666666666666673L183.38828125,14.666666666666673L184.54166666666666,14.666666666666673L185.6950520833333,14.666666666666673L186.84843750000002,14.666666666666673L188.00182291666667,14.666666666666673L189.15520833333335,14.666666666666673L190.30859375,14.666666666666673L191.46197916666665,14.666666666666673L192.61536458333333,14.666666666666673L193.76874999999998,14.666666666666673L194.9221354166667,14.666666666666673L196.07552083333334,14.666666666666673L197.22890625,14.666666666666673L198.38229166666667,14.666666666666673L199.53567708333333,14.666666666666673L200.6890625,14.666666666666673L201.84244791666666,14.666666666666673L202.9958333333333,14.666666666666673L204.14921875000002,14.666666666666673L205.30260416666667,14.691135565439867L206.45598958333335,14.666666666666673L207.609375,14.666666666666673L208.76276041666665,14.666666666666673L209.91614583333333,14.666666666666673L211.06953124999998,14.666666666666673L212.2229166666667,14.666666666666673L213.37630208333334,14.666666666666673L214.5296875,14.666666666666673L215.68307291666667,14.666666666666673L216.83645833333333,14.691135565439867L217.98984375,14.666666666666673L219.14322916666666,14.691135565439867L220.2966145833333,14.666666666666673L221.45000000000002,14.666666666666673L222.60338541666667,14.666666666666673L223.75677083333335,14.691135565439867L224.91015625,14.666666666666673L226.06354166666665,14.666666666666673L227.21692708333333,14.666666666666673L228.37031249999998,14.666666666666673L229.5236979166667,14.666666666666673L230.67708333333334,14.666666666666673L231.83046875,14.666666666666673L232.98385416666667,14.666666666666673L234.13723958333333,14.666666666666673L235.290625,14.666666666666673L236.44401041666666,14.666666666666673L237.5973958333333,14.666666666666673L238.75078125000002,14.666666666666673L239.90416666666667,14.666666666666673L241.05755208333335,14.666666666666673L242.2109375,14.666666666666673L243.36432291666665,14.666666666666673L244.51770833333333,14.666666666666673L245.67109374999998,14.666666666666673L246.8244791666667,14.666666666666673L247.97786458333334,14.666666666666673L249.13125,14.666666666666673L250.28463541666667,14.666666666666673L251.43802083333333,14.666666666666673L252.59140625,14.666666666666673" style="fill: none;" fill="none"></path></g></g></g></g></g></g><g transform="translate(53, 176)" clip-path="url(#clip_1)"><clipPath id="clip_1"><rect width="276" height="24"></rect></clipPath><g><g><line x1="0" y1="0" x2="0" y2="5" style="visibility: inherit;" fill="rgb(0, 0, 0)" stroke="rgb(204, 204, 204)" stroke-width="1px"></line><line x1="23.067708333333332" y1="0" x2="23.067708333333332" y2="5" style="visibility: inherit;" fill="rgb(0, 0, 0)" stroke="rgb(204, 204, 204)" stroke-width="1px"></line><line x1="46.135416666666664" y1="0" x2="46.135416666666664" y2="5" style="visibility: inherit;" fill="rgb(0, 0, 0)" stroke="rgb(204, 204, 204)" stroke-width="1px"></line><line x1="69.203125" y1="0" x2="69.203125" y2="5" style="visibility: inherit;" fill="rgb(0, 0, 0)" stroke="rgb(204, 204, 204)" stroke-width="1px"></line><line x1="92.27083333333333" y1="0" x2="92.27083333333333" y2="5" style="visibility: inherit;" fill="rgb(0, 0, 0)" stroke="rgb(204, 204, 204)" stroke-width="1px"></line><line x1="115.33854166666667" y1="0" x2="115.33854166666667" y2="5" style="visibility: inherit;" fill="rgb(0, 0, 0)" stroke="rgb(204, 204, 204)" stroke-width="1px"></line><line x1="138.40625" y1="0" x2="138.40625" y2="5" style="visibility: inherit;" fill="rgb(0, 0, 0)" stroke="rgb(204, 204, 204)" stroke-width="1px"></line><line x1="161.47395833333334" y1="0" x2="161.47395833333334" y2="5" style="visibility: inherit;" fill="rgb(0, 0, 0)" stroke="rgb(204, 204, 204)" stroke-width="1px"></line><line x1="184.54166666666666" y1="0" x2="184.54166666666666" y2="5" style="visibility: inherit;" fill="rgb(0, 0, 0)" stroke="rgb(204, 204, 204)" stroke-width="1px"></line><line x1="207.609375" y1="0" x2="207.609375" y2="5" style="visibility: inherit;" fill="rgb(0, 0, 0)" stroke="rgb(204, 204, 204)" stroke-width="1px"></line><line x1="230.67708333333334" y1="0" x2="230.67708333333334" y2="5" style="visibility: inherit;" fill="rgb(0, 0, 0)" stroke="rgb(204, 204, 204)" stroke-width="1px"></line><line x1="253.74479166666666" y1="0" x2="253.74479166666666" y2="5" style="visibility: inherit;" fill="rgb(0, 0, 0)" stroke="rgb(204, 204, 204)" stroke-width="1px"></line><line x1="276.8125" y1="0" x2="276.8125" y2="5" style="visibility: inherit;" fill="rgb(0, 0, 0)" stroke="rgb(204, 204, 204)" stroke-width="1px"></line></g><g transform="translate(0, 8)"><text x="0" y="0" dx="0em" dy="0.95em" style="text-anchor: middle; visibility: hidden; font-family: Roboto, sans-serif; font-size: 12px; font-weight: 200;" fill="rgb(33, 33, 33)" stroke="none" stroke-width="1px">-20</text><text x="23.067708333333332" y="0" dx="0em" dy="0.95em" style="text-anchor: middle; visibility: inherit; font-family: Roboto, sans-serif; font-size: 12px; font-weight: 200;" fill="rgb(33, 33, 33)" stroke="none" stroke-width="1px">0</text><text x="46.135416666666664" y="0" dx="0em" dy="0.95em" style="text-anchor: middle; visibility: hidden; font-family: Roboto, sans-serif; font-size: 12px; font-weight: 200;" fill="rgb(33, 33, 33)" stroke="none" stroke-width="1px">20</text><text x="69.203125" y="0" dx="0em" dy="0.95em" style="text-anchor: middle; visibility: inherit; font-family: Roboto, sans-serif; font-size: 12px; font-weight: 200;" fill="rgb(33, 33, 33)" stroke="none" stroke-width="1px">40</text><text x="92.27083333333333" y="0" dx="0em" dy="0.95em" style="text-anchor: middle; visibility: hidden; font-family: Roboto, sans-serif; font-size: 12px; font-weight: 200;" fill="rgb(33, 33, 33)" stroke="none" stroke-width="1px">60</text><text x="115.33854166666667" y="0" dx="0em" dy="0.95em" style="text-anchor: middle; visibility: inherit; font-family: Roboto, sans-serif; font-size: 12px; font-weight: 200;" fill="rgb(33, 33, 33)" stroke="none" stroke-width="1px">80</text><text x="138.40625" y="0" dx="0em" dy="0.95em" style="text-anchor: middle; visibility: hidden; font-family: Roboto, sans-serif; font-size: 12px; font-weight: 200;" fill="rgb(33, 33, 33)" stroke="none" stroke-width="1px">100</text><text x="161.47395833333334" y="0" dx="0em" dy="0.95em" style="text-anchor: middle; visibility: inherit; font-family: Roboto, sans-serif; font-size: 12px; font-weight: 200;" fill="rgb(33, 33, 33)" stroke="none" stroke-width="1px">120</text><text x="184.54166666666666" y="0" dx="0em" dy="0.95em" style="text-anchor: middle; visibility: hidden; font-family: Roboto, sans-serif; font-size: 12px; font-weight: 200;" fill="rgb(33, 33, 33)" stroke="none" stroke-width="1px">140</text><text x="207.609375" y="0" dx="0em" dy="0.95em" style="text-anchor: middle; visibility: inherit; font-family: Roboto, sans-serif; font-size: 12px; font-weight: 200;" fill="rgb(33, 33, 33)" stroke="none" stroke-width="1px">160</text><text x="230.67708333333334" y="0" dx="0em" dy="0.95em" style="text-anchor: middle; visibility: hidden; font-family: Roboto, sans-serif; font-size: 12px; font-weight: 200;" fill="rgb(33, 33, 33)" stroke="none" stroke-width="1px">180</text><text x="253.74479166666666" y="0" dx="0em" dy="0.95em" style="text-anchor: middle; visibility: inherit; font-family: Roboto, sans-serif; font-size: 12px; font-weight: 200;" fill="rgb(33, 33, 33)" stroke="none" stroke-width="1px">200</text><text x="276.8125" y="0" dx="0em" dy="0.95em" style="text-anchor: middle; visibility: hidden; font-family: Roboto, sans-serif; font-size: 12px; font-weight: 200;" fill="rgb(33, 33, 33)" stroke="none" stroke-width="1px">220</text></g><line x1="0" y1="0" x2="276.8125" y2="0" fill="rgb(0, 0, 0)" stroke="rgb(204, 204, 204)" stroke-width="1px"></line></g></g></g></g></svg>